<?xml version="1.0" standalone="no"?>
<!DOCTYPE svg PUBLIC "-//W3C//DTD SVG 20010904//EN"
 "http://www.w3.org/TR/2001/REC-SVG-20010904/DTD/svg10.dtd">
<svg version="1.0" xmlns="http://www.w3.org/2000/svg"
 width="138.000000pt" height="138.000000pt" viewBox="0 0 138.000000 138.000000"
 preserveAspectRatio="xMidYMid meet">

<g transform="translate(0.000000,138.000000) scale(0.100000,-0.100000)"
fill="#000000" stroke="none">
<path d="M0 690 l0 -690 690 0 690 0 0 690 0 690 -690 0 -690 0 0 -690z m1300
0 l0 -610 -610 0 -610 0 0 610 0 610 610 0 610 0 0 -610z"/>
<path d="M110 690 l0 -580 580 -2 580 -3 0 583 0 582 -580 0 -580 0 0 -580z
m850 220 c0 -49 -4 -90 -9 -90 -5 0 -20 29 -33 65 l-23 65 -82 0 -83 0 0 -264
0 -264 45 -11 c81 -20 51 -31 -85 -31 -137 0 -165 11 -85 32 l45 12 0 263 0
263 -83 0 -82 0 -23 -65 c-13 -36 -28 -65 -33 -65 -5 0 -9 41 -9 90 l0 90 270
0 270 0 0 -90z"/>
</g>
</svg>
